<?xml version="1.0" standalone="no"?>
<!DOCTYPE svg PUBLIC "-//W3C//DTD SVG 20010904//EN"
 "http://www.w3.org/TR/2001/REC-SVG-20010904/DTD/svg10.dtd">
<svg version="1.0" xmlns="http://www.w3.org/2000/svg"
 width="1280.000000pt" height="1280.000000pt" viewBox="0 0 1280.000000 1280.000000"
 preserveAspectRatio="xMidYMid meet">

<g transform="translate(0.000000,1280.000000) scale(0.100000,-0.100000)"
fill="#000000" stroke="none">
<path d="M5045 11290 c-243 -34 -432 -94 -605 -191 -351 -195 -572 -507 -664
-938 -30 -139 -71 -241 -141 -351 -179 -280 -426 -421 -895 -511 -167 -33
-311 -75 -500 -149 -214 -84 -428 -235 -561 -397 -203 -246 -299 -519 -299
-854 0 -320 107 -643 371 -1121 289 -522 404 -802 504 -1218 51 -215 53 -220
55 -130 3 158 34 463 50 504 5 11 16 57 25 101 9 44 20 89 25 100 5 11 18 49
29 85 27 88 57 173 69 196 6 10 22 46 37 79 72 158 144 297 199 379 33 50 62
93 66 96 4 3 19 26 34 52 21 37 158 208 210 264 72 77 181 184 187 184 4 0 14
7 23 15 13 13 11 23 -20 91 -52 111 -54 137 -15 173 18 17 48 32 69 35 58 10
205 -40 381 -129 l74 -37 46 49 c110 118 333 223 609 288 40 9 75 21 78 26 3
5 -15 41 -40 79 -136 206 -200 354 -177 412 32 83 227 42 336 -70 17 -17 33
-32 36 -32 4 0 10 30 13 68 4 37 9 79 12 93 4 20 -8 41 -58 101 -170 204 -248
420 -248 682 l0 125 -25 -24 c-33 -34 -61 -31 -97 7 -68 72 -104 195 -96 317
9 123 63 177 167 167 92 -8 160 -74 192 -186 19 -67 26 -68 39 -4 19 91 29
111 82 159 78 70 176 113 283 126 335 39 575 116 765 244 135 91 254 209 342
341 46 68 58 77 58 43 0 -37 41 -161 75 -229 42 -82 116 -188 186 -264 95
-104 301 -246 357 -246 3 0 2 57 -1 128 -12 238 -68 407 -198 599 -54 79 -384
398 -474 458 -143 94 -297 158 -475 195 -116 25 -385 36 -495 20z"/>
<path d="M8700 10900 c-9 -6 -10 -10 -3 -10 6 0 15 5 18 10 8 12 4 12 -15 0z"/>
<path d="M9400 10785 c0 -5 5 -17 10 -25 5 -8 10 -10 10 -5 0 6 -5 17 -10 25
-5 8 -10 11 -10 5z"/>
<path d="M7103 10755 c-63 -32 -123 -95 -162 -172 -37 -73 -85 -222 -105 -328
-9 -44 -25 -109 -36 -145 -27 -88 -25 -94 12 -35 62 100 272 290 428 386 68
43 232 122 285 139 22 7 44 15 49 18 11 6 -255 136 -310 151 -61 17 -106 13
-161 -14z"/>
<path d="M7783 10643 c-18 -2 -33 -8 -33 -14 0 -5 -7 -9 -15 -9 -12 0 -35 -28
-35 -44 0 -3 10 -6 23 -6 13 0 34 -12 46 -27 21 -23 25 -24 33 -10 12 22 30
21 56 -1 14 -13 18 -22 11 -33 -13 -21 -12 -22 29 -49 72 -48 187 -139 221
-174 19 -20 41 -36 48 -36 7 0 13 -6 13 -14 0 -18 40 -47 53 -39 6 3 7 1 3 -5
-9 -15 10 -50 44 -83 14 -14 25 -30 23 -35 -2 -5 4 -19 12 -29 15 -20 15 -20
34 2 16 19 20 20 25 7 4 -11 -1 -18 -14 -21 -11 -3 -20 -9 -20 -14 0 -19 93
-189 100 -184 5 3 6 -10 3 -30 -3 -22 0 -47 11 -69 9 -19 16 -41 16 -49 0 -21
17 -30 23 -13 7 18 47 28 47 11 0 -7 -7 -18 -15 -25 -9 -7 -15 -23 -13 -34 4
-26 49 -34 71 -12 20 20 57 21 57 1 0 -9 -9 -15 -25 -15 -14 0 -25 -6 -26 -12
-7 -77 -7 -78 12 -78 11 0 19 5 19 10 0 19 17 10 28 -15 17 -38 36 -32 29 10
-3 19 -2 35 4 35 5 0 8 -3 8 -7 -3 -20 3 -56 8 -45 4 10 8 10 19 1 15 -12 20
-34 5 -25 -5 3 -8 -21 -7 -54 2 -42 -1 -60 -10 -60 -7 0 -10 -8 -7 -18 3 -14
-4 -22 -26 -32 -37 -15 -38 -23 -10 -51 11 -11 18 -24 14 -27 -3 -4 -10 -1
-14 6 -4 7 -15 10 -25 6 -14 -5 -17 -14 -12 -37 3 -17 8 -33 11 -35 9 -9 55
17 55 32 0 17 27 29 35 16 4 -6 1 -10 -6 -10 -7 0 -9 -3 -6 -7 4 -3 2 -12 -4
-19 -6 -8 -9 -21 -5 -30 3 -8 1 -25 -5 -36 -15 -28 4 -47 25 -25 9 9 16 21 16
27 0 8 9 10 27 6 17 -5 29 -3 34 6 7 10 10 10 21 0 11 -11 10 -16 -4 -26 -19
-14 -25 -46 -9 -46 5 0 11 -11 13 -24 4 -20 1 -24 -15 -20 -11 2 -24 9 -29 16
-5 9 -8 10 -8 1 0 -6 5 -15 10 -18 6 -4 8 -11 4 -16 -3 -5 -10 -7 -15 -4 -18
12 -21 -26 -4 -45 11 -12 13 -20 7 -20 -20 0 -13 -32 8 -37 17 -5 18 -7 4 -20
-18 -18 -48 -9 -40 12 6 17 -2 19 -24 5 -12 -8 -13 -13 -2 -30 7 -12 8 -20 2
-20 -5 0 -10 4 -10 9 0 5 -11 11 -25 13 -19 4 -25 1 -25 -13 0 -10 9 -21 20
-24 11 -4 17 -11 14 -17 -4 -5 3 -5 16 2 22 12 22 11 16 -26 -4 -22 -3 -34 1
-28 10 14 53 25 53 14 0 -5 -5 -20 -11 -33 -8 -17 -18 -23 -35 -21 -13 1 -24
-1 -24 -4 0 -14 -39 -32 -45 -22 -3 6 5 14 19 20 29 11 35 44 11 54 -10 4 -15
-1 -15 -14 0 -22 -26 -28 -32 -8 -3 7 1 24 8 37 10 19 10 27 2 32 -20 13 -40
-3 -35 -27 3 -18 0 -24 -14 -24 -15 0 -19 -7 -19 -32 1 -27 2 -30 11 -15 12
21 29 22 29 1 0 -8 -4 -12 -10 -9 -5 3 -10 -3 -10 -14 0 -16 -5 -19 -30 -16
-16 2 -32 -1 -36 -6 -9 -15 2 -22 18 -13 17 11 69 14 63 4 -6 -10 72 -64 104
-73 18 -4 22 -2 19 16 -2 13 -10 22 -20 22 -29 0 -30 12 -2 19 14 4 27 6 28 4
36 -57 38 -59 52 -47 14 11 15 10 18 -23 1 -7 -15 -12 -38 -13 -51 -3 -77 -45
-26 -45 24 0 31 -21 14 -44 -12 -17 -14 -17 -29 -2 -10 9 -14 23 -11 32 8 20
-20 30 -39 14 -12 -10 -13 -16 -4 -26 6 -8 17 -14 24 -14 6 0 17 -11 23 -25
15 -33 15 -38 -2 -32 -20 8 -27 -3 -15 -25 7 -13 7 -23 0 -32 -7 -9 -6 -19 5
-34 13 -20 12 -25 -6 -24 -3 0 -6 -7 -6 -17 0 -16 2 -16 28 -2 25 15 29 15 45
-3 17 -18 17 -18 -7 -13 -27 7 -28 5 -33 -63 -2 -25 -25 -60 -39 -60 -12 0
-10 48 2 55 6 4 8 11 4 16 -4 6 -14 3 -25 -7 -20 -18 -26 -44 -10 -44 19 0 22
-39 5 -65 -15 -23 -15 -28 -3 -36 11 -7 10 -9 -6 -9 -18 -1 -18 -2 3 -10 25
-11 28 -23 9 -42 -20 -20 -25 -41 -16 -63 7 -19 8 -19 8 2 1 12 4 23 9 25 14
6 43 93 32 96 -5 2 -10 11 -10 20 1 23 37 65 49 58 5 -4 12 4 16 16 3 13 12
37 20 53 11 26 23 56 55 140 4 11 13 33 19 48 6 15 11 38 11 50 0 13 5 28 12
35 11 11 38 78 38 95 0 4 -7 7 -15 7 -8 0 -15 5 -15 10 0 19 -29 10 -35 -11
-9 -26 0 -35 19 -20 10 8 16 9 21 1 3 -5 1 -10 -4 -10 -6 0 -11 -8 -11 -19 0
-24 -49 -35 -69 -16 -19 19 -6 32 14 15 20 -17 32 -4 19 18 -7 11 -8 26 -3 40
6 16 4 30 -7 47 -10 16 -12 25 -4 30 6 4 16 -7 24 -25 10 -25 14 -29 19 -15 6
15 9 15 29 1 20 -14 23 -14 34 3 15 21 29 71 54 196 9 50 20 101 24 115 10 40
44 278 52 363 4 42 10 77 13 77 3 0 17 -17 31 -38 43 -64 203 -215 290 -273
106 -70 134 -84 234 -121 80 -28 259 -58 272 -45 4 3 -18 34 -49 67 -79 84
-139 172 -209 301 -77 144 -125 273 -203 549 -57 200 -97 287 -173 377 -58 68
-115 111 -185 138 -68 26 -193 18 -271 -18 -32 -15 -63 -24 -70 -20 -6 3 -8 3
-5 -1 3 -3 -5 -19 -20 -35 l-25 -28 -42 45 c-34 36 -46 43 -64 37 -20 -6 -22
-4 -18 13 4 13 0 23 -10 27 -22 8 -35 -9 -34 -45 1 -39 -19 -38 -39 3 -12 24
-22 32 -41 30 -22 -1 -25 2 -23 31 1 19 5 39 9 45 5 7 -3 22 -18 36 -25 23
-38 11 -14 -13 15 -15 4 -26 -18 -18 -12 4 -15 15 -12 37 6 38 -29 70 -104 94
-29 10 -66 23 -83 31 -31 13 -176 54 -195 54 -5 0 -10 -9 -10 -19 0 -26 -17
-36 -36 -20 -10 8 -12 15 -4 23 14 14 13 26 -4 26 -8 0 -19 -13 -25 -30 -9
-29 -31 -42 -31 -19 0 5 -5 7 -10 4 -6 -4 -17 -1 -25 5 -11 10 -15 7 -21 -14
-3 -14 -11 -26 -16 -26 -6 0 -7 7 -4 16 3 9 6 22 6 30 0 7 15 18 33 23 l32 9
-35 -1 c-19 0 -50 -2 -67 -4z m5 -25 c-2 -5 -8 -9 -13 -9 -5 0 -11 4 -13 9 -1
5 4 9 13 9 9 0 14 -4 13 -9z m302 -50 c0 -18 -2 -20 -9 -8 -6 8 -7 18 -5 22 9
14 14 9 14 -14z m100 2 c0 -5 -4 -10 -10 -10 -5 0 -10 5 -10 10 0 6 5 10 10
10 6 0 10 -4 10 -10z m-265 -26 c-9 -9 -19 -13 -23 -10 -3 4 0 11 8 16 24 15
33 11 15 -6z m155 -14 c0 -5 -5 -10 -11 -10 -7 0 -9 -10 -5 -25 8 -30 -4 -32
-30 -4 -18 20 -18 21 1 35 22 16 45 18 45 4z m77 -22 c-3 -8 -6 -5 -6 6 -1 11
2 17 5 13 3 -3 4 -12 1 -19z m-192 -17 c-3 -6 -11 -8 -17 -5 -6 4 -5 9 3 15
16 10 23 4 14 -10z m360 -1 c10 -11 15 -23 11 -27 -4 -4 -11 -2 -15 6 -5 7
-11 12 -15 12 -26 -4 -35 1 -30 14 8 21 28 19 49 -5z m-265 -116 c0 -8 -5 -12
-10 -9 -6 4 -8 11 -5 16 9 14 15 11 15 -7z m295 -104 c3 -5 1 -10 -4 -10 -6 0
-11 5 -11 10 0 6 2 10 4 10 3 0 8 -4 11 -10z m190 -40 c3 -5 2 -10 -4 -10 -5
0 -13 5 -16 10 -3 6 -2 10 4 10 5 0 13 -4 16 -10z m95 -10 c0 -14 -39 -18 -44
-5 -2 7 -2 15 0 18 7 7 44 -4 44 -13z m-315 -10 c3 -5 -1 -10 -10 -10 -9 0
-13 5 -10 10 3 6 8 10 10 10 2 0 7 -4 10 -10z m168 -31 c4 -15 2 -19 -10 -15
-8 3 -17 6 -19 6 -2 0 -4 7 -4 15 0 23 27 18 33 -6z m187 -9 c0 -5 -4 -10 -9
-10 -6 0 -13 5 -16 10 -3 6 1 10 9 10 9 0 16 -4 16 -10z m-340 -55 c0 -8 -4
-15 -10 -15 -5 0 -10 7 -10 15 0 8 5 15 10 15 6 0 10 -7 10 -15z m50 11 c0 -2
-7 -6 -15 -10 -8 -3 -15 -1 -15 4 0 6 7 10 15 10 8 0 15 -2 15 -4z m27 -52
c-3 -4 4 -15 16 -24 12 -11 18 -22 13 -27 -5 -4 -11 -2 -13 5 -3 6 -11 12 -19
12 -8 0 -14 9 -14 20 0 11 5 20 12 20 6 0 9 -3 5 -6z m435 -16 c-7 -7 -12 -8
-12 -2 0 14 12 26 19 19 2 -3 -1 -11 -7 -17z m-72 8 c0 -3 -4 -8 -10 -11 -5
-3 -10 -1 -10 4 0 6 5 11 10 11 6 0 10 -2 10 -4z m100 -46 c0 -5 -5 -10 -11
-10 -5 0 -7 5 -4 10 3 6 8 10 11 10 2 0 4 -4 4 -10z m-65 -10 c3 -5 1 -10 -4
-10 -6 0 -11 5 -11 10 0 6 2 10 4 10 3 0 8 -4 11 -10z m-405 -35 c0 -8 -4 -15
-10 -15 -5 0 -10 7 -10 15 0 8 5 15 10 15 6 0 10 -7 10 -15z m355 -15 c3 -5 1
-10 -4 -10 -6 0 -11 5 -11 10 0 6 2 10 4 10 3 0 8 -4 11 -10z m-295 -34 c0 -3
-4 -8 -10 -11 -5 -3 -10 -1 -10 4 0 6 5 11 10 11 6 0 10 -2 10 -4z m70 -41 c0
-8 -7 -15 -15 -15 -9 0 -12 6 -9 15 4 8 10 15 15 15 5 0 9 -7 9 -15z m57 -117
c-3 -8 -6 -5 -6 6 -1 11 2 17 5 13 3 -3 4 -12 1 -19z m-77 -17 c-13 -26 -14
-52 0 -31 5 8 10 10 10 4 0 -6 -11 -21 -24 -33 l-24 -23 4 42 c4 49 10 60 30
60 11 0 12 -4 4 -19z m197 3 c-3 -3 -12 -4 -19 -1 -8 3 -5 6 6 6 11 1 17 -2
13 -5z m-157 -44 c0 -5 -2 -10 -4 -10 -3 0 -8 5 -11 10 -3 6 -1 10 4 10 6 0
11 -4 11 -10z m35 -40 c-3 -5 -13 -10 -21 -10 -8 0 -12 5 -9 10 3 6 13 10 21
10 8 0 12 -4 9 -10z m65 -24 c0 -3 -4 -8 -10 -11 -5 -3 -10 -1 -10 4 0 6 5 11
10 11 6 0 10 -2 10 -4z m120 -215 c0 -5 -13 -19 -29 -30 l-29 -21 11 24 c6 13
17 21 24 19 7 -3 13 0 13 6 0 6 2 11 5 11 3 0 5 -4 5 -9z m-33 -128 c3 -7 -3
-9 -16 -6 -12 3 -21 10 -21 15 0 13 32 6 37 -9z m68 -59 c15 -23 15 -30 4 -51
-20 -37 -48 -49 -67 -29 -15 14 -15 16 -1 16 12 0 15 7 11 25 -2 15 0 25 7 25
7 0 9 5 6 10 -7 11 2 30 14 30 5 0 16 -12 26 -26z m82 -36 c-3 -8 -6 -5 -6 6
-1 11 2 17 5 13 3 -3 4 -12 1 -19z m-20 -40 c-3 -8 -6 -5 -6 6 -1 11 2 17 5
13 3 -3 4 -12 1 -19z m106 -113 c4 -8 2 -17 -3 -20 -6 -4 -10 3 -10 14 0 25 6
27 13 6z m27 -55 c0 -5 -4 -10 -10 -10 -5 0 -10 5 -10 10 0 6 5 10 10 10 6 0
10 -4 10 -10z m-40 -56 c0 -3 -7 -1 -15 6 -8 7 -15 17 -15 22 0 5 7 3 15 -6 8
-8 15 -18 15 -22z m-70 -88 c0 -2 -7 -6 -15 -10 -8 -3 -15 -1 -15 4 0 6 7 10
15 10 8 0 15 -2 15 -4z m-125 -36 c3 -5 -1 -10 -9 -10 -9 0 -16 5 -16 10 0 6
4 10 9 10 6 0 13 -4 16 -10z m144 -51 c-8 -5 -16 -3 -21 4 -14 22 -8 28 13 16
17 -9 19 -13 8 -20z m-69 -15 c0 -14 -3 -14 -15 -4 -8 7 -15 14 -15 16 0 2 7
4 15 4 8 0 15 -7 15 -16z m57 -56 c-3 -8 -6 -5 -6 6 -1 11 2 17 5 13 3 -3 4
-12 1 -19z m-67 -8 c0 -5 -7 -10 -16 -10 -8 0 -12 5 -9 10 3 6 10 10 16 10 5
0 9 -4 9 -10z m-42 -22 c4 -19 -16 -27 -52 -21 -31 6 -29 29 3 26 11 -2 21 2
21 8 0 16 25 5 28 -13z m122 -14 c0 -17 -22 -14 -28 4 -2 7 3 12 12 12 9 0 16
-7 16 -16z m-233 -20 c-3 -3 -12 -4 -19 -1 -8 3 -5 6 6 6 11 1 17 -2 13 -5z
m153 -194 c0 -5 -7 -10 -15 -10 -8 0 -15 -8 -16 -17 0 -11 -2 -13 -6 -5 -7 19
4 42 22 42 8 0 15 -4 15 -10z m-45 -61 c11 -17 -1 -21 -15 -4 -8 9 -8 15 -2
15 6 0 14 -5 17 -11z"/>
<path d="M8306 10577 c-16 -12 -16 -13 2 -14 10 -1 19 5 19 13 0 17 1 17 -21
1z"/>
<path d="M7815 10511 c-3 -5 4 -13 16 -16 23 -8 34 -1 24 14 -8 13 -32 14 -40
2z"/>
<path d="M7465 9891 c-11 -5 -31 -20 -44 -34 -30 -32 -25 -71 20 -178 34 -82
63 -119 91 -119 26 0 23 25 -21 156 -44 126 -42 132 23 120 48 -9 95 -44 140
-103 34 -47 40 -51 60 -41 11 6 27 14 35 18 8 3 17 12 19 18 6 20 -84 106
-142 135 -59 30 -146 43 -181 28z"/>
<path d="M5185 9676 c-52 -24 -120 -90 -110 -107 9 -14 31 -11 46 7 68 82 287
64 335 -28 10 -20 19 -27 26 -20 15 15 -25 84 -68 117 -77 58 -150 69 -229 31z"/>
<path d="M6273 9661 c-63 -29 -121 -117 -111 -168 3 -13 14 -3 41 40 23 35 50
63 70 73 31 15 36 15 65 0 34 -18 52 -46 72 -113 7 -24 17 -43 21 -43 15 0 22
48 14 97 -9 59 -38 101 -81 119 -42 17 -40 17 -91 -5z"/>
<path d="M7000 9518 c0 -17 48 -114 63 -127 23 -18 21 -9 -7 47 -26 50 -55 92
-56 80z"/>
<path d="M5905 9382 c6 -113 25 -191 72 -295 45 -101 42 -104 -74 -90 -49 6
-89 10 -91 8 -2 -2 23 -11 55 -21 42 -14 91 -19 180 -19 67 0 124 2 127 5 3 3
-30 42 -73 86 -105 109 -150 193 -186 354 l-15 65 5 -93z"/>
<path d="M8636 9455 c4 -8 10 -12 15 -9 14 8 10 24 -6 24 -9 0 -12 -6 -9 -15z"/>
<path d="M8613 9404 c-4 -10 0 -20 10 -26 10 -5 17 -16 17 -23 0 -8 7 -15 16
-15 14 0 14 2 0 22 -9 12 -16 30 -16 40 0 22 -19 24 -27 2z"/>
<path d="M5332 9188 c-16 -16 -15 -121 2 -185 31 -118 114 -228 217 -290 102
-61 263 -80 354 -42 29 12 29 13 -35 19 -275 29 -478 210 -507 452 -6 53 -14
63 -31 46z"/>
<path d="M8620 9085 c0 -17 5 -25 13 -22 6 2 12 12 12 22 0 10 -6 20 -12 23
-8 2 -13 -6 -13 -23z"/>
<path d="M8710 9024 c0 -10 7 -14 22 -12 32 5 35 28 4 28 -17 0 -26 -5 -26
-16z"/>
<path d="M8610 9000 c0 -11 5 -20 10 -20 6 0 10 9 10 20 0 11 -4 20 -10 20 -5
0 -10 -9 -10 -20z"/>
<path d="M8700 8966 c0 -8 4 -17 9 -20 10 -7 23 19 14 28 -11 11 -23 6 -23 -8z"/>
<path d="M8621 8911 c-10 -6 -10 -10 -1 -16 13 -8 24 -1 19 14 -3 6 -10 7 -18
2z"/>
<path d="M6230 8496 c-213 -257 -439 -358 -765 -342 -75 3 -164 14 -210 26
-114 28 -107 31 -104 -54 l3 -75 30 6 c22 5 27 3 21 -7 -5 -8 -4 -11 3 -6 6 3
27 -3 47 -15 28 -17 34 -26 30 -43 -5 -15 -4 -17 3 -7 12 17 37 4 77 -41 42
-47 65 -96 65 -140 l0 -38 -75 0 c-41 0 -84 -4 -97 -9 -13 -5 -48 -14 -78 -21
-85 -20 -180 -62 -259 -115 -39 -26 -74 -51 -76 -54 -7 -12 69 -85 233 -226
89 -77 182 -156 206 -175 43 -35 44 -37 75 -170 61 -261 75 -348 75 -485 1
-116 -2 -135 -22 -177 -27 -55 -87 -98 -225 -163 -141 -65 -182 -77 -295 -83
-211 -10 -402 48 -608 183 -75 50 -124 68 -124 47 0 -15 60 -80 112 -119 145
-112 354 -173 587 -173 201 0 367 42 531 133 l75 42 130 0 c106 0 137 4 168
19 20 10 37 22 37 28 0 5 16 16 36 24 51 21 39 25 -26 7 -63 -17 -215 -11
-259 10 -24 11 -27 19 -33 87 -28 311 -52 448 -107 626 -17 54 -31 108 -31
121 0 12 25 64 56 114 52 87 114 242 114 288 0 12 4 21 8 21 34 0 312 -269
425 -412 134 -169 283 -424 333 -570 77 -226 48 -557 -69 -798 -60 -123 -132
-212 -344 -425 -231 -233 -323 -359 -447 -610 -109 -222 -145 -352 -146 -527
l0 -67 -37 15 c-79 32 -420 203 -468 235 -194 128 -243 162 -345 245 -63 51
-147 123 -185 161 -85 83 -253 265 -274 298 -45 68 -134 175 -142 170 -5 -3
-6 0 -4 8 3 7 -5 29 -18 48 -22 33 -71 119 -123 215 -14 27 -36 67 -49 89 -13
22 -24 46 -24 53 -1 8 -17 50 -37 95 -33 76 -63 163 -78 230 -4 15 -13 27 -20
27 -8 0 -17 7 -20 16 -5 14 -4 15 9 4 12 -10 15 -10 15 3 0 34 -20 67 -40 67
-16 0 -20 -7 -20 -30 0 -16 -4 -30 -9 -30 -5 0 -12 -9 -16 -20 -4 -12 -22 -24
-47 -32 -35 -10 -41 -10 -50 5 -10 19 -38 23 -38 6 0 -6 9 -13 21 -16 12 -4
18 -11 15 -20 -3 -8 -6 -19 -6 -24 0 -21 -16 -6 -32 29 -10 22 -16 55 -15 82
2 25 -1 51 -6 58 -7 8 -7 16 0 23 7 7 15 0 25 -22 15 -29 16 -30 23 -10 7 22
30 27 55 11 13 -9 13 -11 0 -19 -8 -6 -11 -13 -7 -17 12 -13 -36 -32 -56 -22
-23 12 -35 2 -18 -15 6 -6 37 -12 67 -12 52 -1 55 1 51 22 -3 16 2 24 14 28
12 4 19 16 19 30 0 17 6 25 23 27 12 2 21 9 19 17 -2 8 -7 50 -13 95 -6 44
-14 85 -19 91 -6 7 -5 16 1 22 12 12 4 33 -12 33 -6 0 -8 -4 -5 -9 7 -10 -23
-45 -41 -48 -7 -2 -13 2 -13 7 0 6 5 10 10 10 6 0 10 6 10 14 0 8 10 22 21 30
14 9 23 28 25 51 2 36 2 36 -21 21 -21 -14 -24 -13 -40 4 -16 17 -16 20 -2 20
8 0 18 -6 21 -12 4 -9 5 -8 5 2 -1 8 -1 24 0 35 2 18 4 17 13 -5 l10 -25 10
25 c6 17 6 26 -2 28 -6 2 -17 10 -24 18 -8 8 -19 14 -25 14 -14 0 -14 -27 -1
-35 20 -12 -1 -24 -30 -18 -26 5 -30 3 -30 -17 0 -16 -4 -20 -16 -16 -9 3 -18
6 -20 6 -2 0 -4 9 -4 20 0 10 -9 24 -19 30 -25 13 -31 13 -31 0 0 -5 9 -10 20
-10 43 0 17 -15 -28 -16 -68 -3 -66 -2 -80 -25 -12 -19 -11 -20 6 -15 16 5
104 -35 130 -59 2 -2 -3 -12 -10 -24 -14 -23 -38 -28 -39 -8 0 6 -5 2 -11 -10
-6 -13 -17 -23 -25 -23 -7 0 -22 -6 -33 -12 -17 -11 -22 -10 -30 2 -16 25 -12
39 10 33 12 -3 20 -2 19 3 -4 24 3 34 26 34 34 0 31 15 -7 34 -36 18 -47 14
-27 -10 13 -16 11 -17 -21 -11 -40 8 -57 29 -32 39 14 5 13 7 -6 7 -29 1 -40
-26 -17 -43 15 -11 16 -18 8 -42 -13 -36 -7 -54 18 -54 10 0 18 -3 18 -7 -5
-31 3 -43 29 -43 25 -1 24 -2 -11 -15 -21 -7 -41 -16 -44 -19 -10 -10 6 -36
23 -36 20 0 43 -28 44 -52 0 -19 16 -25 22 -8 2 6 9 5 18 -1 11 -8 12 -12 3
-16 -18 -7 -16 -23 2 -23 8 0 15 -4 15 -10 0 -5 -15 -10 -32 -10 -23 0 -29 -3
-19 -9 10 -7 10 -10 1 -16 -7 -4 -16 -2 -20 5 -5 8 -10 9 -14 2 -3 -6 4 -18
16 -27 l23 -17 -22 7 c-30 8 -30 -9 0 -30 l22 -15 -23 -7 c-18 -4 -20 -8 -10
-14 7 -5 23 -9 36 -9 20 0 21 -3 12 -21 -8 -14 -15 -17 -23 -11 -7 5 -24 12
-39 16 -25 6 -28 4 -28 -19 0 -15 -4 -24 -9 -20 -14 8 -25 -15 -13 -27 7 -7
17 -6 31 4 12 8 18 18 14 21 -3 4 3 7 15 7 27 0 27 -5 5 -29 -17 -18 -98 -35
-106 -22 -2 3 -2 1 -1 -6 2 -7 -3 -19 -11 -27 -16 -15 -20 -46 -7 -46 18 1 32
18 26 33 -3 9 -2 17 4 17 13 0 26 -51 15 -61 -4 -4 -25 -10 -45 -14 -33 -6
-36 -5 -32 13 7 23 -22 38 -30 16 -3 -9 -10 -12 -16 -9 -14 9 -3 24 24 35 13
4 23 14 23 22 0 26 35 70 46 59 14 -14 30 -14 22 -1 -3 6 -1 10 4 10 6 0 11 7
11 15 0 8 8 22 18 32 24 23 34 51 22 58 -6 4 -10 15 -10 26 0 22 -8 23 -45 9
-23 -9 -26 -8 -23 7 2 12 15 18 43 20 22 1 45 9 51 17 6 9 14 13 17 9 4 -3 4
16 1 43 -3 27 -7 50 -8 51 -1 1 -15 -4 -30 -12 -16 -8 -30 -15 -31 -15 -2 0
-2 23 -1 50 2 40 -1 50 -14 50 -27 0 -42 -21 -24 -35 15 -10 15 -13 0 -27 -8
-9 -21 -19 -28 -21 -10 -4 -9 -8 2 -16 11 -8 16 -7 18 4 4 19 18 19 26 0 7
-18 -16 -30 -40 -21 -11 4 -15 2 -11 -8 3 -8 -1 -20 -9 -27 -14 -11 -14 -13 0
-21 18 -10 21 -28 5 -28 -6 0 -17 -7 -26 -15 -9 -10 -23 -13 -35 -9 -18 5 -20
3 -16 -20 6 -28 -9 -36 -18 -11 -4 8 -10 15 -15 15 -16 0 -10 -30 6 -31 8 -1
21 -2 28 -3 6 -1 11 7 9 17 -2 9 2 17 7 17 11 0 22 -34 25 -75 1 -28 11 -32
23 -11 10 16 49 30 56 19 9 -14 -18 -41 -43 -45 -19 -2 -26 -10 -28 -31 -2
-17 -14 -34 -30 -44 -34 -22 -42 -33 -42 -60 0 -17 4 -20 22 -15 14 3 19 2 14
-6 -4 -7 -18 -12 -31 -12 -13 0 -27 -5 -31 -12 -5 -7 0 -9 14 -6 12 3 23 1 26
-6 3 -7 5 -7 5 2 1 16 21 16 21 -1 0 -7 -16 -19 -35 -27 -26 -10 -32 -17 -24
-26 13 -15 41 -7 33 10 -3 6 3 1 13 -11 13 -16 25 -21 41 -17 17 5 22 2 22
-13 0 -10 5 -24 12 -31 9 -9 8 -12 -4 -12 -24 0 -29 -13 -14 -41 19 -38 16
-53 -20 -79 -36 -27 -42 -40 -19 -40 8 0 15 5 15 10 0 6 6 10 14 10 8 0 17 7
20 16 8 20 31 13 31 -9 0 -9 4 -17 8 -17 4 0 12 0 18 0 5 0 8 4 5 9 -3 5 2 17
12 28 9 10 16 17 15 14 -2 -2 2 -10 9 -18 14 -18 20 -63 7 -63 -19 0 -8 -21
16 -30 24 -9 31 -21 19 -33 -10 -10 -53 15 -60 35 -5 15 -12 18 -42 12 -44 -8
-52 -12 -52 -26 0 -6 9 -8 21 -5 23 6 49 -1 49 -13 0 -4 -23 -7 -52 -6 -33 1
-53 -3 -55 -11 -4 -10 7 -11 40 -7 26 4 47 2 51 -4 3 -6 16 -8 29 -5 21 4 21
4 4 -10 -21 -17 -10 -29 32 -35 39 -5 77 -39 95 -82 21 -54 20 -59 -9 -55 -30
3 -32 -6 -4 -31 17 -16 22 -16 29 -4 6 8 10 23 10 33 0 9 7 17 15 17 8 0 15 8
15 19 0 10 9 30 21 45 11 15 18 33 15 41 -4 12 -1 12 20 3 23 -11 24 -13 10
-24 -30 -21 -18 -61 17 -55 4 0 7 -5 7 -13 0 -21 -41 -28 -55 -9 -9 11 -14 13
-19 5 -4 -7 -4 -17 -1 -22 3 -6 -1 -13 -9 -16 -21 -8 -21 -44 0 -44 9 0 14 -5
12 -12 -7 -21 -25 -19 -32 4 l-7 23 -9 -22 c-12 -28 -27 -29 -35 -3 -3 11 -11
20 -16 20 -6 0 -8 -4 -5 -8 3 -5 -2 -21 -9 -36 -8 -16 -13 -32 -10 -36 3 -4
-9 -17 -26 -28 -38 -24 -22 -40 22 -22 22 10 28 17 24 31 -10 31 19 23 44 -12
13 -17 19 -34 15 -38 -5 -3 -9 -13 -9 -21 0 -8 -5 -15 -12 -15 -25 0 -24 -15
1 -25 15 -5 29 -17 32 -25 9 -22 41 -19 54 5 6 11 15 18 21 15 5 -4 9 -1 9 6
0 7 3 10 6 6 4 -3 3 -14 0 -24 -6 -15 -8 -15 -16 -3 -7 11 -10 6 -10 -17 0
-18 4 -33 10 -33 23 0 49 -34 44 -56 -5 -20 -3 -22 17 -17 13 4 33 17 45 30
11 12 24 20 27 17 3 -3 -3 -16 -14 -27 -15 -16 -16 -23 -7 -26 7 -2 21 -14 31
-25 l19 -21 -4 27 c-1 15 1 26 7 25 5 -1 9 -6 7 -11 -2 -5 5 -6 14 -2 12 5 15
2 10 -10 -3 -8 -6 -29 -6 -45 0 -27 -1 -28 -25 -17 -14 6 -25 15 -25 19 0 4
-9 7 -19 6 -24 -2 -15 -27 10 -27 10 0 19 -5 19 -12 0 -6 3 -8 7 -5 3 4 12 2
19 -4 8 -6 22 -8 31 -5 15 6 15 8 3 16 -18 11 -8 23 12 15 15 -6 42 -91 33
-106 -11 -16 19 -9 45 11 14 11 30 20 37 20 6 0 14 6 16 13 4 9 6 9 6 0 1 -7
8 -13 16 -13 9 0 15 -9 15 -25 0 -19 -5 -25 -21 -25 -16 0 -19 4 -14 21 10 29
-24 22 -50 -12 -16 -21 -23 -24 -38 -15 -17 11 -26 5 -41 -29 -3 -6 -8 -4 -14
3 -5 8 -12 13 -16 13 -3 -1 -6 1 -6 4 0 3 0 9 0 14 0 5 10 11 23 14 21 3 20 4
-8 16 -23 10 -26 14 -15 21 11 7 7 10 -16 10 -23 0 -33 -5 -37 -20 -3 -12 -14
-20 -26 -20 -12 0 -21 -6 -21 -13 0 -16 41 -37 71 -37 11 0 30 -7 43 -15 22
-15 56 -12 56 5 0 5 12 8 28 6 19 -1 26 -7 24 -18 -1 -9 7 -23 18 -31 11 -7
17 -17 13 -20 -3 -4 -1 -7 5 -7 6 0 16 -9 21 -19 9 -16 8 -18 -9 -14 -11 3
-20 0 -20 -6 0 -6 7 -11 16 -11 11 0 14 -5 10 -16 -3 -9 -6 -18 -6 -20 0 -3
-9 0 -21 6 -26 15 -37 5 -21 -20 17 -28 16 -29 -23 -19 -27 8 -40 7 -56 -4
-18 -13 -18 -15 -3 -21 9 -3 22 -2 29 4 7 6 15 6 22 -1 7 -7 21 -6 44 3 19 8
53 14 77 13 27 0 42 4 42 12 0 16 13 23 28 14 9 -5 0 -16 -29 -36 -36 -24 -49
-27 -91 -22 l-48 6 23 -31 c16 -22 18 -32 10 -35 -21 -8 -14 -23 10 -23 13 0
28 -5 34 -11 7 -7 15 -6 27 6 9 9 21 13 27 10 7 -5 2 -12 -13 -19 -16 -8 -23
-20 -23 -39 1 -15 -5 -27 -11 -27 -16 0 -27 32 -14 40 8 5 6 9 -4 13 -25 10
-41 -1 -42 -28 -2 -22 6 -30 29 -26 4 0 7 -8 7 -19 0 -21 15 -27 25 -10 8 13
25 13 25 -1 0 -14 25 -39 39 -39 6 0 11 7 11 15 0 11 7 14 25 9 19 -5 30 -1
44 15 19 22 41 28 41 11 0 -5 6 -10 14 -10 7 0 16 -9 19 -21 4 -15 2 -19 -9
-15 -17 6 -18 1 -3 -25 7 -15 7 -24 -1 -35 -10 -11 -9 -20 5 -40 l17 -27 15
31 c15 30 43 51 43 31 0 -5 -7 -12 -15 -15 -20 -8 -19 -30 2 -38 19 -8 50 24
33 34 -5 3 -1 11 9 17 15 10 23 8 41 -12 22 -23 22 -23 1 -30 -11 -3 -18 -12
-15 -19 4 -9 -4 -11 -28 -8 -31 5 -32 4 -18 -13 8 -10 15 -32 15 -49 0 -17 3
-32 8 -33 25 -9 49 0 58 21 7 14 23 26 40 30 15 3 33 15 40 27 10 20 9 21 -10
16 -17 -4 -19 -2 -11 12 5 10 16 23 24 31 13 10 16 10 16 -2 0 -8 10 -20 23
-26 17 -8 18 -11 5 -11 -11 -1 -18 -9 -18 -21 0 -11 -7 -23 -15 -26 -19 -8
-19 -21 1 -41 12 -13 15 -13 14 -2 -4 27 12 57 32 62 11 3 17 3 14 0 -3 -4 0
-16 8 -28 13 -20 13 -25 0 -44 -8 -11 -14 -26 -12 -33 2 -7 -2 -14 -7 -16 -6
-2 -12 7 -15 19 -5 22 -6 22 -25 3 -18 -19 -18 -19 4 -22 18 -3 20 -6 10 -18
-8 -9 -16 -11 -23 -5 -7 6 -17 6 -26 1 -13 -8 -13 -12 2 -26 15 -15 18 -16 33
-1 8 9 29 24 45 33 15 10 33 28 39 40 14 31 49 28 45 -3 -1 -14 3 -23 12 -23
8 0 14 -7 14 -15 0 -8 9 -19 19 -25 26 -13 31 -13 31 5 0 8 6 14 12 12 19 -3
41 -27 34 -35 -4 -3 -11 0 -17 8 -8 13 -11 13 -22 0 -6 -8 -22 -14 -35 -12
l-22 3 23 -25 c14 -14 28 -26 32 -26 5 0 23 -12 42 -26 19 -14 37 -23 40 -20
3 3 6 23 7 43 1 31 5 39 24 41 13 2 25 -3 28 -12 3 -9 10 -16 16 -16 5 0 6 5
2 12 -5 8 -2 9 10 5 10 -4 20 -7 22 -7 8 0 4 -39 -5 -44 -10 -7 -8 -37 2 -36
4 0 6 2 5 4 -5 8 44 55 54 53 14 -3 29 41 18 48 -17 10 -11 23 22 54 24 22 35
27 45 19 15 -12 8 -28 -14 -28 -15 0 -42 -27 -43 -42 0 -5 9 -8 20 -8 15 0 20
-7 20 -27 0 -16 -5 -35 -10 -43 -7 -11 -5 -17 8 -22 28 -11 39 -9 39 7 0 8 -4
15 -9 15 -14 0 -9 28 7 34 22 8 18 26 -5 26 -26 0 -25 20 0 53 11 14 19 35 18
48 -2 12 3 24 10 26 7 3 13 -1 11 -8 -1 -8 -1 -29 0 -47 1 -29 3 -32 21 -22
16 9 20 8 20 -5 0 -8 -7 -15 -15 -15 -9 0 -15 -9 -15 -25 0 -16 -6 -25 -16
-25 -11 0 -14 -5 -10 -16 3 -9 6 -17 6 -20 0 -6 35 9 41 19 4 6 19 5 39 -2 40
-14 50 -14 50 -1 0 6 -6 10 -14 10 -28 0 -24 25 5 27 20 2 27 -2 23 -11 -6
-15 19 -28 40 -20 8 3 16 14 19 25 4 14 14 19 36 19 17 0 31 -5 31 -11 0 -7
-9 -9 -21 -6 -18 5 -20 2 -14 -16 4 -12 8 -32 9 -45 3 -28 35 -65 37 -42 1 8
1 18 0 22 0 4 9 10 20 13 16 6 19 12 14 33 -3 14 -14 32 -23 39 -11 8 -12 12
-4 13 6 0 21 -9 32 -20 l20 -20 0 23 c0 13 -5 28 -11 34 -6 6 -8 17 -4 24 6 8
12 4 22 -15 8 -15 18 -24 23 -21 17 11 11 -7 -7 -21 -14 -10 -15 -15 -6 -25
17 -17 39 -5 51 30 9 25 8 31 -4 31 -7 0 -14 5 -14 10 0 21 26 9 42 -20 17
-30 44 -34 74 -9 10 8 20 6 41 -9 31 -22 32 -22 69 -22 14 0 23 -4 19 -10 -3
-5 1 -10 9 -10 9 0 16 4 16 8 0 4 16 15 36 24 36 16 37 16 55 -5 10 -12 16
-32 14 -44 -4 -26 7 -30 25 -8 9 10 9 15 1 15 -21 0 -11 18 13 22 29 6 41 -1
41 -22 0 -31 32 -20 60 20 28 41 42 52 31 25 -3 -8 -2 -15 2 -16 4 0 15 -2 25
-4 9 -2 17 2 17 8 0 7 5 6 11 -3 8 -12 12 -12 16 -2 3 9 12 5 28 -13 28 -29
61 -33 67 -7 4 13 -1 17 -20 17 -14 0 -27 7 -30 15 -3 12 -2 12 8 3 8 -8 20
-9 36 -3 19 8 24 6 25 -8 0 -10 3 -12 6 -4 2 6 14 12 24 12 11 0 17 5 14 10
-3 6 -2 10 4 10 5 0 11 -10 13 -22 4 -26 -25 -63 -41 -53 -6 3 -11 1 -11 -4 0
-13 39 -14 58 -2 11 7 17 21 21 52 1 8 39 5 47 -4 4 -4 12 -3 18 2 7 6 21 4
36 -6 14 -8 17 -12 7 -9 -11 4 -16 2 -12 -5 9 -14 30 -6 30 12 0 8 9 14 20 15
11 0 27 3 35 7 8 4 33 13 55 21 l40 15 -35 1 -35 1 25 14 c14 7 43 15 65 17
34 3 40 8 43 29 3 24 -1 25 -125 53 -162 37 -298 79 -488 151 -82 31 -179 67
-215 80 -36 13 -82 30 -102 38 l-38 13 104 102 103 102 39 -47 c105 -131 240
-226 400 -282 320 -111 673 -38 953 198 77 65 162 204 138 227 -3 3 -31 -8
-64 -25 -79 -41 -150 -55 -255 -49 -74 5 -100 11 -156 38 -79 39 -162 101
-215 160 -71 80 -157 244 -157 301 0 19 0 19 38 0 295 -149 588 -158 869 -24
41 19 73 39 71 45 -2 5 -46 32 -98 59 -105 55 -170 97 -170 110 0 20 246 133
340 156 36 8 74 19 85 23 19 8 19 8 1 16 -42 17 -227 -49 -391 -139 l-70 -39
-72 78 c-40 42 -73 81 -73 85 0 11 63 37 119 50 61 13 330 39 413 39 37 0 69
4 73 9 10 18 -65 24 -209 18 -229 -9 -363 -48 -499 -144 -54 -38 -90 -57 -105
-55 -31 5 -22 14 50 51 35 17 77 42 93 55 l29 24 -23 51 c-20 41 -29 51 -49
51 -20 0 -22 3 -13 14 9 11 4 40 -24 130 -64 214 -95 584 -96 1165 0 172 2
316 5 318 2 3 29 -31 60 -74 56 -79 118 -196 152 -288 10 -27 20 -52 24 -55 3
-3 12 -18 20 -34 21 -41 70 -86 127 -117 31 -17 61 -44 86 -80 118 -168 273
-294 430 -348 76 -27 206 -35 282 -19 81 18 91 37 88 178 -3 154 -20 258 -69
410 -24 74 -44 141 -44 149 0 11 14 13 81 7 44 -4 100 -9 124 -13 l43 -5 -14
68 c-8 38 -26 117 -40 177 l-26 107 -95 0 c-153 0 -290 55 -381 154 -53 58
-94 124 -87 139 4 7 -8 -4 -25 -23 -157 -172 -209 -210 -288 -210 -48 0 -57 4
-83 31 -43 46 -38 69 21 104 92 54 149 151 171 288 12 77 12 79 38 73 14 -3
72 -14 129 -23 l102 -17 0 -31 c0 -16 -6 -50 -13 -74 -16 -52 -4 -99 41 -162
60 -84 180 -123 283 -93 151 44 309 194 388 369 18 39 36 78 41 87 28 51 77
303 86 443 7 114 -17 328 -43 382 -28 61 -40 41 -46 -79 -7 -142 -29 -210
-110 -348 -47 -80 -86 -129 -162 -206 -113 -113 -193 -170 -310 -216 -74 -30
-88 -32 -195 -32 -129 0 -182 15 -343 94 -96 46 -89 29 -52 145 33 103 48 193
49 300 1 125 -12 161 -75 203 -31 22 -42 24 -119 19 -170 -10 -354 -105 -553
-287 -30 -27 -58 -50 -61 -50 -26 0 31 264 102 475 16 50 29 90 29 91 -1 0
-36 -40 -77 -90z m-2933 -2011 c3 -9 3 -19 -1 -22 -8 -9 -37 18 -30 28 8 14
24 11 31 -6z m61 -41 c-4 -3 -16 -3 -28 1 -17 5 -19 9 -9 21 11 13 14 13 28 0
8 -9 12 -18 9 -22z m57 -15 c10 -15 -1 -23 -20 -15 -9 3 -13 10 -10 16 8 13
22 13 30 -1z m-64 -29 c25 -14 26 -56 1 -56 -10 0 -19 5 -20 11 0 5 -3 20 -6
33 -6 25 -3 26 25 12z m-52 -75 c19 -21 21 -28 11 -40 -16 -20 -20 -19 -53 11
-31 26 -30 54 0 54 10 0 29 -12 42 -25z m131 -9 c0 -3 -4 -8 -10 -11 -5 -3
-10 -1 -10 4 0 6 5 11 10 11 6 0 10 -2 10 -4z m-210 -30 c0 -3 -4 -8 -10 -11
-5 -3 -10 -1 -10 4 0 6 5 11 10 11 6 0 10 -2 10 -4z m112 -51 c-4 -25 -13 -31
-25 -19 -6 7 14 44 24 44 3 0 4 -11 1 -25z m88 15 c0 -5 -2 -10 -4 -10 -3 0
-8 5 -11 10 -3 6 -1 10 4 10 6 0 11 -4 11 -10z m-17 -30 c4 -17 2 -20 -15 -14
-12 4 -24 1 -29 -7 -4 -7 -11 -10 -15 -6 -9 9 25 47 41 47 7 0 15 -9 18 -20z
m52 -10 c3 -5 1 -10 -4 -10 -6 0 -11 5 -11 10 0 6 2 10 4 10 3 0 8 -4 11 -10z
m-35 -49 c0 -5 -9 -7 -20 -4 -11 3 -20 7 -20 9 0 2 9 4 20 4 11 0 20 -4 20 -9z
m-16 -27 c3 -8 2 -12 -4 -9 -6 3 -10 10 -10 16 0 14 7 11 14 -7z m-324 -11 c0
-5 -4 -14 -8 -21 -11 -17 -42 -4 -35 14 5 14 43 20 43 7z m130 -63 c0 -5 -5
-10 -11 -10 -5 0 -7 5 -4 10 3 6 8 10 11 10 2 0 4 -4 4 -10z m-185 -29 c-6 -5
-21 -12 -35 -15 -24 -7 -24 -6 -6 8 21 17 57 23 41 7z m56 -34 c-8 -8 -11 -7
-11 4 0 20 13 34 18 19 3 -7 -1 -17 -7 -23z m134 13 c-3 -5 -10 -10 -16 -10
-5 0 -9 5 -9 10 0 6 7 10 16 10 8 0 12 -4 9 -10z m-185 -14 c0 -8 -4 -17 -9
-21 -12 -7 -24 12 -16 25 9 15 25 12 25 -4z m410 -10 c0 -13 -19 -26 -48 -32
-20 -4 -24 -10 -26 -38 0 -14 -7 -26 -13 -26 -7 0 -13 -7 -13 -15 0 -8 -4 -15
-10 -15 -15 0 -12 16 6 34 8 9 16 29 16 45 1 29 20 47 38 36 4 -3 10 2 14 10
7 19 36 20 36 1z m70 -6 c9 -16 8 -20 -5 -20 -8 0 -15 9 -15 20 0 11 2 20 5
20 2 0 9 -9 15 -20z m-26 -45 c-4 -8 -10 -12 -15 -9 -11 6 -2 24 11 24 5 0 7
-7 4 -15z m-208 -16 c4 -8 0 -9 -15 -4 -25 8 -29 -12 -5 -30 9 -6 15 -17 13
-23 -6 -17 -37 11 -44 41 -6 24 -4 27 18 27 14 0 29 -5 33 -11z m39 -9 c3 -5
-1 -10 -9 -10 -9 0 -16 5 -16 10 0 6 4 10 9 10 6 0 13 -4 16 -10z m139 -15 c5
0 11 -6 14 -12 5 -17 -8 -16 -30 1 -20 15 -25 31 -5 19 6 -4 16 -8 21 -8z
m-254 -24 c0 -11 -39 -25 -47 -18 -3 3 -2 10 2 16 8 13 45 15 45 2z m315 -1
c3 -5 -1 -10 -9 -10 -9 0 -16 5 -16 10 0 6 4 10 9 10 6 0 13 -4 16 -10z m-35
-22 c0 -4 -6 -8 -12 -8 -7 0 -23 -3 -36 -6 -17 -5 -21 -3 -17 8 6 15 65 21 65
6z m-340 -45 c0 -7 -5 -13 -11 -13 -5 0 -7 5 -4 10 3 6 2 10 -4 10 -6 0 -8 7
-4 16 5 13 7 13 14 2 5 -7 9 -19 9 -25z m78 12 c-2 -17 -8 -23 -20 -22 -24 4
-35 17 -15 17 10 0 17 7 17 15 0 8 4 15 10 15 5 0 9 -11 8 -25z m72 0 c0 -19
5 -25 21 -25 15 0 19 -5 15 -15 -3 -8 -2 -14 2 -14 38 6 43 -17 6 -24 -22 -4
-28 0 -37 24 -6 16 -18 29 -27 29 -13 0 -13 1 0 10 10 6 11 10 3 10 -7 0 -13
7 -13 15 0 8 7 15 15 15 9 0 15 -9 15 -25z m270 14 c0 -5 -4 -8 -9 -5 -5 3
-12 -5 -15 -18 -4 -18 -11 -23 -25 -19 -18 5 -18 7 7 29 30 26 42 30 42 13z
m-157 -70 c-23 -8 -27 -4 -19 17 5 14 9 14 22 3 14 -12 14 -14 -3 -20z m-218
-10 c4 -6 4 -13 1 -16 -6 -6 -46 30 -46 42 0 8 38 -13 45 -26z m65 16 c10 -12
8 -14 -9 -10 -12 2 -21 0 -21 -6 0 -5 -5 -9 -12 -9 -6 0 -3 9 7 20 22 24 20
24 35 5z m-250 -63 c0 -20 -2 -21 -13 -10 -17 16 -29 63 -20 72 10 9 32 -34
33 -62z m110 60 c0 -10 -50 -37 -62 -34 -5 1 -8 -2 -8 -8 0 -5 5 -10 10 -10 6
0 10 -11 10 -26 0 -18 7 -28 28 -35 15 -5 32 -19 37 -32 12 -26 8 -77 -6 -77
-5 0 -9 6 -8 13 1 6 1 17 0 24 -2 18 -55 70 -80 78 -27 8 -28 25 -1 25 21 0
27 15 10 25 -17 11 -11 22 23 43 36 23 47 26 47 14z m334 -29 c-10 -7 -23 -13
-28 -13 -6 0 -3 7 8 15 11 8 15 19 10 27 -6 9 -3 9 10 -1 17 -14 17 -15 0 -28z
m62 12 c-36 -19 -47 -19 -22 0 11 8 27 15 35 15 9 0 3 -7 -13 -15z m49 -43
c-3 -3 -11 0 -18 7 -9 10 -8 11 6 5 10 -3 15 -9 12 -12z m-315 -13 c0 -5 6 -9
14 -9 8 0 18 -4 21 -10 12 -19 -20 -10 -50 15 -26 21 -27 23 -7 18 12 -3 22
-9 22 -14z m85 -17 c-11 -11 -34 8 -28 24 6 15 7 15 20 -1 7 -10 11 -21 8 -23z
m50 28 c3 -5 2 -10 -4 -10 -5 0 -13 5 -16 10 -3 6 -2 10 4 10 5 0 13 -4 16
-10z m245 -20 c0 -5 -5 -10 -11 -10 -5 0 -7 5 -4 10 3 6 8 10 11 10 2 0 4 -4
4 -10z m-490 -15 c0 -8 -4 -15 -10 -15 -5 0 -10 7 -10 15 0 8 5 15 10 15 6 0
10 -7 10 -15z m50 -11 c0 -8 10 -14 23 -14 13 0 17 -3 11 -8 -7 -4 -15 -25
-18 -47 -4 -22 -11 -44 -17 -50 -7 -7 -7 -2 -1 14 7 20 4 30 -20 55 -16 16
-25 32 -20 35 5 3 11 14 15 24 8 20 27 14 27 -9z m173 -1 c-18 -7 -16 -30 3
-37 8 -3 12 -11 9 -17 -5 -7 -15 -3 -30 11 -19 18 -21 25 -12 36 7 7 19 13 27
13 10 0 11 -2 3 -6z m107 3 c0 -2 -7 -6 -15 -10 -8 -3 -15 -1 -15 4 0 6 7 10
15 10 8 0 15 -2 15 -4z m125 -6 c3 -5 -3 -10 -15 -10 -12 0 -18 5 -15 10 3 6
10 10 15 10 5 0 12 -4 15 -10z m-305 -55 c0 -8 -4 -15 -9 -15 -5 0 -11 7 -15
15 -3 9 0 15 9 15 8 0 15 -7 15 -15z m233 -5 c4 0 7 -5 7 -11 0 -7 -7 -8 -17
-4 -10 4 -27 8 -38 10 -34 4 -35 5 -35 14 0 5 16 5 38 0 20 -5 40 -9 45 -9z
m131 -15 c6 -17 4 -18 -18 -9 -20 8 -21 24 -2 24 8 0 16 -7 20 -15z m-400 -10
c-4 -8 -13 -15 -21 -15 -13 0 -13 3 -3 15 7 8 16 15 21 15 5 0 6 -7 3 -15z
m201 -21 l30 -8 -28 -4 c-16 -2 -35 2 -43 9 -12 10 -17 8 -29 -7 -14 -18 -14
-18 -15 8 0 30 18 41 40 23 8 -7 29 -16 45 -21z m-125 16 c0 -5 -6 -10 -14
-10 -8 0 -18 5 -21 10 -3 6 3 10 14 10 12 0 21 -4 21 -10z m-250 -17 c2 -2 -2
-8 -10 -13 -15 -9 -40 4 -40 22 0 8 38 2 50 -9z m594 -8 c3 -8 0 -15 -7 -15
-7 0 -22 -3 -34 -6 -18 -5 -23 -2 -23 11 0 14 3 15 15 5 12 -10 16 -9 21 4 8
20 20 21 28 1z m-372 -17 c6 6 21 12 33 12 19 -1 19 -1 1 -15 -14 -11 -17 -20
-10 -42 12 -42 11 -45 -14 -54 -20 -8 -22 -6 -18 24 2 18 7 40 11 50 7 16 5
16 -19 6 -19 -9 -30 -9 -37 -2 -18 18 -1 34 21 21 15 -10 22 -10 32 0z m207
-19 c-19 -12 -24 -2 -8 17 9 11 14 13 17 4 3 -7 -2 -16 -9 -21z m91 -9 c0 -5
-4 -10 -10 -10 -5 0 -10 5 -10 10 0 6 5 10 10 10 6 0 10 -4 10 -10z m-386 -14
c-21 -15 -30 -14 -19 3 3 6 14 11 23 11 13 0 13 -2 -4 -14z m-34 0 c0 -3 -4
-8 -10 -11 -5 -3 -10 -1 -10 4 0 6 5 11 10 11 6 0 10 -2 10 -4z m230 -6 c0 -5
-2 -10 -4 -10 -3 0 -8 5 -11 10 -3 6 -1 10 4 10 6 0 11 -4 11 -10z m-175 -30
c3 -5 -1 -10 -10 -10 -9 0 -13 5 -10 10 3 6 8 10 10 10 2 0 7 -4 10 -10z m282
-28 c-10 -2 -26 -1 -35 3 -14 5 -14 8 -2 15 8 5 22 4 34 -3 19 -10 20 -11 3
-15z m-67 5 c0 -7 -7 -22 -15 -33 -8 -10 -15 -27 -15 -36 0 -22 -50 -26 -50
-4 0 8 -6 17 -12 19 -10 4 -10 6 0 6 7 1 15 -6 18 -14 10 -25 34 -17 34 11 0
29 16 64 30 64 6 0 10 -6 10 -13z m-194 -22 c-11 -8 -26 -15 -34 -15 -8 0 -21
-8 -28 -17 -7 -10 -16 -14 -21 -9 -4 5 -2 11 5 13 6 3 12 11 12 18 0 8 12 16
28 18 54 8 58 7 38 -8z m434 5 c0 -5 -4 -10 -10 -10 -5 0 -10 5 -10 10 0 6 5
10 10 10 6 0 10 -4 10 -10z m-197 -78 c-22 -5 -27 5 -12 21 12 13 15 13 20 -2
4 -10 1 -17 -8 -19z m124 12 c-3 -3 -12 -4 -19 -1 -8 3 -5 6 6 6 11 1 17 -2
13 -5z m-364 -23 c37 -14 34 -26 -9 -29 -25 -2 -34 1 -28 9 4 8 3 9 -5 5 -18
-11 -61 2 -61 19 0 16 56 14 103 -4z m97 -3 c0 -13 -32 -6 -37 9 -3 7 3 9 16
6 12 -3 21 -10 21 -15z m32 -43 c-2 -14 -8 -25 -13 -25 -5 0 -9 11 -9 25 0 14
6 25 14 25 9 0 12 -8 8 -25z m438 15 c0 -5 -4 -10 -10 -10 -5 0 -10 5 -10 10
0 6 5 10 10 10 6 0 10 -4 10 -10z m-390 -15 c0 -8 -4 -15 -10 -15 -5 0 -10 7
-10 15 0 8 5 15 10 15 6 0 10 -7 10 -15z m-179 -38 c-10 -9 -11 -8 -5 6 3 10
9 15 12 12 3 -3 0 -11 -7 -18z m369 -8 c0 -5 -7 -9 -15 -9 -15 0 -20 12 -9 23
8 8 24 -1 24 -14z m-50 1 c0 -5 -2 -10 -4 -10 -3 0 -8 5 -11 10 -3 6 -1 10 4
10 6 0 11 -4 11 -10z m175 -40 c3 -5 -1 -10 -9 -10 -9 0 -16 5 -16 10 0 6 4
10 9 10 6 0 13 -4 16 -10z m-78 -22 c-3 -8 -6 -5 -6 6 -1 11 2 17 5 13 3 -3 4
-12 1 -19z m-47 2 c0 -5 -2 -10 -4 -10 -3 0 -8 5 -11 10 -3 6 -1 10 4 10 6 0
11 -4 11 -10z m-180 -21 c31 -5 41 -39 12 -39 -31 0 -52 -11 -52 -26 0 -22
-31 -16 -37 7 -3 11 -11 18 -19 15 -7 -3 -16 -1 -20 5 -7 12 -5 15 23 23 18 6
22 4 17 -8 -4 -11 -1 -16 10 -16 10 0 19 11 23 31 3 17 9 26 12 21 3 -6 17
-12 31 -13z m130 11 c0 -5 -2 -10 -4 -10 -2 0 -12 -3 -22 -7 -16 -6 -17 -5 -4
10 17 19 30 22 30 7z m140 -40 c0 -5 -7 -10 -15 -10 -8 0 -15 5 -15 10 0 6 7
10 15 10 8 0 15 -4 15 -10z m90 -11 c0 -5 -4 -9 -8 -9 -5 0 -9 7 -9 15 0 8 4
12 9 9 4 -3 8 -9 8 -15z m-288 -44 c6 -29 5 -30 -16 -9 -9 8 -14 20 -11 25 11
16 23 9 27 -16z m-162 1 c0 -16 -24 -38 -33 -30 -8 9 11 44 23 44 6 0 10 -6
10 -14z m260 -10 c0 -11 -19 -15 -25 -6 -3 5 1 10 9 10 9 0 16 -2 16 -4z m410
0 c0 -3 -4 -8 -10 -11 -5 -3 -10 -1 -10 4 0 6 5 11 10 11 6 0 10 -2 10 -4z
m-682 -84 c-20 -4 -25 -22 -6 -22 7 0 2 -7 -11 -16 -19 -14 -25 -14 -32 -3 -6
10 -9 11 -9 2 0 -7 -4 -13 -10 -13 -15 0 -12 19 5 37 14 14 14 17 -2 29 -10 7
-13 14 -7 14 7 0 14 10 17 22 6 21 7 21 40 -13 29 -29 31 -34 15 -37z m172 43
c0 -13 -29 -35 -44 -35 -11 0 -6 16 11 37 18 23 33 21 33 -2z m64 -1 c20 -8
21 -24 2 -24 -8 0 -16 7 -20 15 -6 17 -4 18 18 9z m-167 -40 c2 -5 -5 -14 -16
-21 -16 -10 -18 -9 -16 10 1 12 3 24 4 25 2 7 25 -4 28 -14z m103 -44 c0 -14
-7 -20 -21 -20 -15 0 -19 -5 -15 -15 4 -11 -2 -15 -21 -15 l-27 0 32 26 c26
22 30 30 21 46 -9 18 -8 18 10 8 12 -6 21 -20 21 -30z m50 36 c0 -3 -4 -8 -10
-11 -5 -3 -10 -1 -10 4 0 6 5 11 10 11 6 0 10 -2 10 -4z m-265 -56 c3 -5 1
-10 -4 -10 -6 0 -11 5 -11 10 0 6 2 10 4 10 3 0 8 -4 11 -10z m253 -12 c-4
-27 -28 -36 -28 -10 0 20 8 32 22 32 5 0 8 -10 6 -22z m-148 -38 c0 -5 7 -10
15 -10 17 0 19 -9 5 -30 -8 -12 -10 -12 -16 4 -5 13 -13 16 -30 12 -17 -5 -24
-2 -24 8 0 14 14 24 38 25 6 1 12 -3 12 -9z m144 -18 c7 -12 -7 -27 -29 -30
-19 -2 -19 -2 -3 11 10 8 15 17 11 20 -3 4 -1 7 5 7 6 0 13 -4 16 -8z m39 -63
c-10 -10 -53 0 -53 13 0 5 6 8 13 7 22 -3 37 1 36 9 -3 20 4 24 8 3 3 -13 1
-27 -4 -32z m71 -12 c-2 -53 -4 -57 -14 -57 -5 0 -10 9 -10 19 0 11 -5 23 -11
27 -8 4 -4 13 12 25 13 10 24 19 24 19 0 0 -1 -15 -1 -33z m52 6 c-10 -10 -19
5 -10 18 6 11 8 11 12 0 2 -7 1 -15 -2 -18z m84 -67 c0 -3 -4 -8 -10 -11 -5
-3 -10 -1 -10 4 0 6 5 11 10 11 6 0 10 -2 10 -4z m-120 -22 c0 -17 -22 -14
-28 4 -2 7 3 12 12 12 9 0 16 -7 16 -16z m-53 -53 c-1 -11 -6 -17 -14 -14 -10
4 -11 9 -2 19 15 19 18 18 16 -5z m248 -71 c-3 -5 -14 -10 -23 -10 -15 0 -15
2 -2 10 20 13 33 13 25 0z m-119 -57 c-10 -10 -19 5 -10 18 6 11 8 11 12 0 2
-7 1 -15 -2 -18z m110 6 c3 -6 2 -15 -4 -21 -6 -6 -11 -2 -15 11 -5 22 7 29
19 10z m101 -21 c-3 -8 -6 -5 -6 6 -1 11 2 17 5 13 3 -3 4 -12 1 -19z m-219
-43 c-3 -3 -9 2 -12 12 -6 14 -5 15 5 6 7 -7 10 -15 7 -18z m182 -15 c0 -5 -2
-10 -4 -10 -3 0 -8 5 -11 10 -3 6 -1 10 4 10 6 0 11 -4 11 -10z m-146 -46 c25
-5 34 -14 13 -14 -9 0 -23 -10 -31 -22 -17 -23 -20 -19 -16 21 1 14 -2 21 -9
17 -6 -4 -11 -2 -11 4 0 8 7 9 18 5 9 -4 25 -8 36 -11z m112 0 c0 -5 4 -17 8
-26 5 -11 1 -26 -11 -42 -20 -28 -39 -29 -37 -3 3 40 4 42 14 27 13 -20 13 -4
0 21 -6 11 -8 24 -5 30 8 12 30 7 31 -7z m404 -24 c0 -5 -4 -10 -10 -10 -5 0
-10 5 -10 10 0 6 5 10 10 10 6 0 10 -4 10 -10z m-233 -32 c-3 -8 -6 -5 -6 6
-1 11 2 17 5 13 3 -3 4 -12 1 -19z m60 -35 c2 -6 -8 -10 -22 -10 -21 0 -23 2
-14 14 13 15 31 13 36 -4z m-141 -48 c-2 -5 -11 -9 -20 -7 -10 2 -24 -2 -32
-9 -11 -9 -14 -7 -14 10 0 12 6 21 15 21 9 0 12 6 8 17 -6 14 -3 14 20 -3 14
-10 25 -23 23 -29z m-196 19 c0 -8 -4 -12 -10 -9 -5 3 -10 10 -10 16 0 5 5 9
10 9 6 0 10 -7 10 -16z m120 6 c0 -16 -38 -32 -46 -18 -4 7 -3 8 4 4 7 -4 12
-1 12 8 0 9 7 16 15 16 8 0 15 -4 15 -10z m205 -20 c3 -5 1 -10 -4 -10 -6 0
-11 5 -11 10 0 6 2 10 4 10 3 0 8 -4 11 -10z m-265 -20 c0 -4 -5 -11 -12 -18
-9 -9 -9 -12 3 -12 17 -1 69 -45 69 -60 0 -6 -5 -8 -10 -5 -6 3 -22 -3 -36
-14 -33 -26 -43 -26 -73 -1 -25 21 -23 50 4 50 8 0 15 9 15 20 0 11 -4 20 -10
20 -5 0 -10 6 -10 14 0 8 11 13 30 12 16 -1 30 -3 30 -6z m163 -42 c-8 -13
-10 -19 -12 -40 -1 -9 -4 -9 -12 -1 -12 12 4 53 22 53 6 0 7 -5 2 -12z m127
-8 c0 -5 -5 -10 -11 -10 -5 0 -7 5 -4 10 3 6 8 10 11 10 2 0 4 -4 4 -10z m-60
-10 c0 -5 -4 -10 -10 -10 -5 0 -10 5 -10 10 0 6 5 10 10 10 6 0 10 -4 10 -10z
m-140 -35 c10 -12 10 -15 -4 -15 -9 0 -16 7 -16 15 0 8 2 15 4 15 2 0 9 -7 16
-15z m160 -17 c0 -16 -3 -19 -11 -11 -6 6 -8 16 -5 22 11 17 16 13 16 -11z
m13 -42 c3 -8 -2 -16 -14 -19 -16 -4 -17 -2 -8 14 12 23 15 23 22 5z m43 -41
c18 -14 18 -14 -8 -15 -18 0 -28 5 -28 15 0 19 11 19 36 0z m184 1 c0 -3 -4
-8 -10 -11 -5 -3 -10 -1 -10 4 0 6 5 11 10 11 6 0 10 -2 10 -4z m-27 -46 c-5
-20 -15 -25 -26 -14 -6 6 13 33 25 34 3 0 4 -9 1 -20z m-145 -6 c12 -4 22 -11
22 -16 0 -5 -4 -7 -9 -4 -5 4 -11 1 -13 -5 -2 -6 -14 -2 -27 10 -25 22 -16 26
27 15z m682 -8 c0 -3 -4 -8 -10 -11 -5 -3 -10 -1 -10 4 0 6 5 11 10 11 6 0 10
-2 10 -4z m-81 -47 c-16 -10 -23 -4 -14 10 3 6 11 8 17 5 6 -4 5 -9 -3 -15z
m-452 -4 c0 -8 -4 -15 -9 -15 -4 0 -8 7 -8 15 0 8 4 15 8 15 5 0 9 -7 9 -15z
m-194 -12 c-7 -2 -13 -12 -13 -20 0 -9 -3 -14 -6 -10 -10 10 4 37 18 36 10 0
10 -2 1 -6z m202 -23 c3 -5 2 -10 -4 -10 -5 0 -13 5 -16 10 -3 6 -2 10 4 10 5
0 13 -4 16 -10z m355 1 c0 -5 -7 -11 -15 -15 -15 -5 -20 5 -8 17 9 10 23 9 23
-2z m110 5 c0 -3 -4 -8 -10 -11 -5 -3 -10 -1 -10 4 0 6 5 11 10 11 6 0 10 -2
10 -4z m-302 -26 c-11 -17 -48 -29 -48 -16 0 11 33 36 46 36 12 0 12 -3 2 -20z
m-393 -28 c-8 -8 -25 10 -19 20 4 6 9 5 15 -3 4 -7 6 -15 4 -17z m535 -8 c0
-20 -7 -17 -20 6 -9 16 -8 18 5 14 8 -4 15 -12 15 -20z m-80 6 c0 -5 -4 -10
-10 -10 -5 0 -10 5 -10 10 0 6 5 10 10 10 6 0 10 -4 10 -10z m28 -40 c1 -16
-1 -30 -5 -30 -11 0 -32 48 -25 55 14 14 28 2 30 -25z m152 20 c0 -5 -4 -10
-10 -10 -5 0 -10 5 -10 10 0 6 5 10 10 10 6 0 10 -4 10 -10z m-250 -30 c0 -5
-4 -10 -10 -10 -5 0 -10 5 -10 10 0 6 5 10 10 10 6 0 10 -4 10 -10z m155 1 c3
-5 1 -12 -5 -16 -5 -3 -10 1 -10 9 0 18 6 21 15 7z m281 -16 c18 -14 40 -25
48 -25 9 0 16 -7 16 -16 0 -13 -5 -15 -22 -9 -13 5 -40 8 -61 8 -36 -1 -37 0
-23 16 20 22 20 35 1 27 -9 -3 -15 0 -15 9 0 22 19 18 56 -10z m-252 -29 c-43
-33 -64 -40 -76 -28 -9 9 -7 12 9 12 11 0 23 7 27 15 3 8 12 15 21 15 8 0 15
5 15 12 0 9 3 9 12 0 9 -9 8 -15 -8 -26z m-149 4 c-10 -11 -22 -17 -27 -14
-12 8 11 34 30 34 13 0 12 -3 -3 -20z m524 -21 c-23 -17 -39 -17 -39 2 0 12
42 29 54 21 5 -2 -2 -13 -15 -23z m371 -35 c0 -2 -9 -4 -21 -4 -15 0 -19 4
-15 16 3 9 6 23 6 32 0 11 6 6 15 -12 8 -15 15 -30 15 -32z m-150 36 c0 -5 -2
-10 -4 -10 -3 0 -8 5 -11 10 -3 6 -1 10 4 10 6 0 11 -4 11 -10z m208 -21 c-2
-6 -8 -10 -13 -10 -5 0 -11 4 -13 10 -2 6 4 11 13 11 9 0 15 -5 13 -11z m222
1 c0 -5 -4 -10 -10 -10 -5 0 -10 5 -10 10 0 6 5 10 10 10 6 0 10 -4 10 -10z
m-1016 -8 c3 -5 -1 -9 -9 -9 -8 0 -12 4 -9 9 3 4 7 8 9 8 2 0 6 -4 9 -8z"/>
<path d="M3826 4148 c3 -4 12 -8 20 -8 8 0 14 4 14 8 0 4 -9 8 -19 8 -11 0
-17 -4 -15 -8z"/>
<path d="M3790 4140 c8 -5 20 -10 25 -10 6 0 3 5 -5 10 -8 5 -19 10 -25 10 -5
0 -3 -5 5 -10z"/>
<path d="M8673 8443 c-7 -3 -13 -11 -13 -18 0 -8 -10 -20 -22 -26 -22 -12 -22
-12 -3 -19 14 -5 26 1 43 22 24 28 21 51 -5 41z"/>
<path d="M8670 8383 c0 -5 8 -17 17 -28 14 -18 15 -18 9 -2 -3 10 -6 23 -6 28
0 5 -4 9 -10 9 -5 0 -10 -3 -10 -7z"/>
<path d="M8590 8360 c0 -5 5 -10 10 -10 6 0 10 5 10 10 0 6 -4 10 -10 10 -5 0
-10 -4 -10 -10z"/>
<path d="M8602 8338 c-7 -7 -12 -19 -12 -27 0 -14 1 -14 10 -1 9 13 10 13 11
0 0 -10 3 -8 9 5 16 36 7 48 -18 23z"/>
<path d="M8650 8340 c-8 -5 -11 -12 -7 -16 4 -4 2 -13 -5 -21 -6 -7 -8 -16 -4
-20 3 -3 6 -1 6 5 0 7 5 12 11 12 16 0 1 -53 -17 -63 -17 -10 -11 -23 18 -38
14 -8 18 -8 14 0 -4 6 2 18 12 27 17 14 18 20 6 66 -16 60 -16 59 -34 48z"/>
<path d="M8570 8169 c-11 -8 -12 -12 -2 -16 7 -2 19 -12 27 -20 12 -12 19 -13
30 -3 20 16 19 34 0 26 -9 -3 -18 1 -21 9 -7 18 -14 18 -34 4z"/>
<path d="M8612 8094 c-7 -8 -8 -14 -3 -14 10 0 25 19 20 25 -2 1 -10 -3 -17
-11z"/>
<path d="M8585 8060 c-3 -5 3 -10 15 -10 12 0 18 5 15 10 -3 6 -10 10 -15 10
-5 0 -12 -4 -15 -10z"/>
<path d="M5165 8030 c3 -5 8 -10 11 -10 2 0 4 5 4 10 0 6 -5 10 -11 10 -5 0
-7 -4 -4 -10z"/>
<path d="M8599 7848 c-9 -17 -9 -23 0 -26 6 -2 9 -8 5 -13 -3 -5 0 -9 5 -9 14
0 14 13 -1 28 -9 9 -8 12 5 12 9 0 17 -6 17 -12 0 -9 3 -8 10 2 5 9 5 19 -2
27 -15 19 -26 16 -39 -9z"/>
<path d="M5227 7789 c7 -7 15 -10 18 -7 3 3 -2 9 -12 12 -14 6 -15 5 -6 -5z"/>
<path d="M8577 7724 c-10 -14 -16 -30 -14 -37 3 -7 6 -4 6 6 1 9 5 17 10 17 8
0 24 30 19 35 -2 2 -11 -8 -21 -21z"/>
<path d="M8490 7641 c0 -5 5 -13 10 -16 6 -3 10 -2 10 4 0 5 -4 13 -10 16 -5
3 -10 2 -10 -4z"/>
<path d="M3380 7590 c0 -24 36 -62 92 -100 33 -22 65 -40 70 -40 16 0 -2 20
-43 46 -22 13 -58 43 -79 64 -22 22 -40 35 -40 30z"/>
<path d="M4396 7380 c-41 -36 -69 -103 -64 -151 l3 -34 29 55 c54 106 103 132
192 105 27 -8 50 -15 52 -15 1 0 -2 9 -8 20 -16 30 -63 50 -119 50 -42 0 -56
-5 -85 -30z"/>
<path d="M9850 7387 c0 -3 11 -46 24 -96 92 -343 35 -869 -145 -1334 -60 -154
-105 -246 -205 -419 -41 -69 -74 -130 -74 -135 -1 -18 -162 -242 -279 -387
-53 -65 -100 -125 -106 -134 -5 -9 -17 -24 -26 -32 -8 -8 -49 -56 -90 -106
-97 -120 -240 -285 -349 -404 -48 -52 -102 -113 -121 -135 -18 -22 -59 -67
-90 -100 -31 -33 -92 -100 -135 -150 -43 -49 -81 -92 -84 -95 -3 -3 -34 -39
-70 -80 -36 -40 -74 -83 -85 -95 -11 -11 -32 -36 -47 -55 -26 -33 -28 -34 -44
-18 -16 16 -21 11 -76 -79 -79 -128 -87 -139 -390 -514 -70 -86 -137 -173
-150 -192 -13 -20 -59 -88 -103 -152 -104 -151 -138 -206 -253 -405 -101 -175
-248 -457 -300 -577 -17 -39 -45 -88 -63 -107 -18 -21 -26 -36 -18 -36 18 0
311 189 434 279 54 40 94 70 280 206 66 49 207 156 313 239 107 83 217 169
246 191 29 23 133 108 232 190 1030 854 1729 1621 2277 2497 65 103 147 241
184 308 l66 121 -22 112 c-11 61 -30 164 -40 227 -55 328 -135 715 -167 799
-77 204 -190 360 -408 564 -64 60 -116 106 -116 104z"/>
<path d="M8423 7223 c-8 -21 -40 -87 -69 -146 -76 -153 -120 -215 -246 -343
l-69 -72 98 -31 c54 -17 118 -32 142 -33 l44 -3 23 57 c12 31 36 99 54 150 18
51 56 143 85 203 29 61 58 125 64 144 11 33 9 36 -29 73 -52 49 -76 49 -97 1z"/>
<path d="M3416 6791 c-4 -7 -5 -15 -2 -18 9 -9 19 4 14 18 -4 11 -6 11 -12 0z"/>
<path d="M3381 6739 c0 -9 -9 -20 -18 -24 -17 -6 -17 -7 0 -17 24 -13 29 -6
24 29 -2 15 -5 21 -6 12z"/>
<path d="M3421 6734 c0 -11 3 -14 6 -6 3 7 2 16 -1 19 -3 4 -6 -2 -5 -13z"/>
<path d="M3296 6643 c-17 -23 -17 -27 -4 -37 8 -6 13 -17 11 -24 -3 -7 1 -10
11 -6 9 3 16 10 16 15 0 5 7 9 16 9 8 0 12 5 9 10 -4 6 -13 7 -24 1 -10 -6
-23 -6 -31 -1 -12 7 -10 14 10 34 13 15 19 26 14 26 -5 0 -18 -12 -28 -27z"/>
<path d="M3381 6634 c0 -11 3 -14 6 -6 3 7 2 16 -1 19 -3 4 -6 -2 -5 -13z"/>
<path d="M3402 6633 c5 -25 28 -28 28 -4 0 12 -6 21 -16 21 -9 0 -14 -7 -12
-17z"/>
<path d="M3287 6559 c7 -7 15 -10 18 -7 3 3 -2 9 -12 12 -14 6 -15 5 -6 -5z"/>
<path d="M3058 6543 c7 -3 16 -2 19 1 4 3 -2 6 -13 5 -11 0 -14 -3 -6 -6z"/>
<path d="M3040 6400 c-23 -7 -23 -8 -3 -9 12 -1 25 4 28 9 3 6 5 10 3 9 -2 -1
-14 -5 -28 -9z"/>
<path d="M2960 6349 c0 -5 5 -7 10 -4 6 3 10 8 10 11 0 2 -4 4 -10 4 -5 0 -10
-5 -10 -11z"/>
<path d="M3052 6318 c3 -7 13 -15 22 -16 12 -3 17 1 14 10 -3 7 -13 15 -22 16
-12 3 -17 -1 -14 -10z"/>
<path d="M5894 6304 c-18 -14 -18 -15 4 -4 12 6 22 13 22 15 0 8 -5 6 -26 -11z"/>
<path d="M2997 6293 c-4 -3 -6 -20 -6 -37 1 -20 3 -24 6 -12 4 15 7 16 14 5 7
-10 9 -6 6 13 -3 31 -10 41 -20 31z"/>
<path d="M8289 6163 c-59 -50 -85 -146 -57 -208 6 -14 16 -24 22 -22 6 2 23
39 38 82 29 84 38 95 81 95 40 0 74 -38 82 -94 7 -45 9 -47 39 -44 30 3 31 4
30 50 0 38 -7 56 -31 85 -69 86 -144 106 -204 56z"/>
<path d="M2950 6121 c0 -6 4 -12 8 -15 5 -3 9 1 9 9 0 8 -4 15 -9 15 -4 0 -8
-4 -8 -9z"/>
<path d="M7176 5965 c-53 -49 -74 -146 -38 -178 10 -10 21 -17 24 -17 7 0 24
45 33 85 9 41 43 75 75 75 24 0 90 -49 90 -68 0 -4 10 -19 21 -31 30 -32 41
-10 22 45 -11 32 -27 51 -66 78 -66 45 -120 49 -161 11z"/>
<path d="M2842 5954 c-15 -16 -8 -34 14 -34 15 0 16 6 6 31 -6 15 -9 15 -20 3z"/>
<path d="M2887 5950 c-3 -11 -2 -20 3 -20 12 0 31 26 23 33 -11 12 -21 7 -26
-13z"/>
<path d="M2825 5850 c-3 -5 -1 -10 4 -10 6 0 11 5 11 10 0 6 -2 10 -4 10 -3 0
-8 -4 -11 -10z"/>
<path d="M8765 5684 c-16 -2 -77 -12 -135 -21 -90 -16 -99 -19 -65 -23 22 -3
85 1 140 8 118 16 316 10 392 -12 29 -8 72 -24 97 -35 53 -23 70 -12 28 18
-71 50 -129 64 -282 67 -80 1 -158 0 -175 -2z"/>
<path d="M2860 5630 c0 -5 5 -10 10 -10 6 0 10 5 10 10 0 6 -4 10 -10 10 -5 0
-10 -4 -10 -10z"/>
<path d="M2906 5623 c-9 -22 -7 -25 7 -18 6 4 4 0 -6 -8 -15 -13 -16 -16 -2
-27 20 -17 37 -1 41 37 3 22 -1 29 -16 30 -10 1 -21 -5 -24 -14z"/>
<path d="M8465 5551 c11 -5 71 -18 132 -30 215 -41 409 -124 569 -243 58 -43
64 -45 64 -19 0 11 -29 46 -67 81 -113 103 -238 152 -518 201 -113 19 -218 25
-180 10z"/>
<path d="M7886 5523 c-4 -4 -4 -55 0 -113 7 -106 7 -107 -19 -127 -56 -44
-187 -30 -268 28 -36 25 -39 24 -39 -10 0 -23 9 -36 42 -60 82 -60 192 -66
294 -16 53 26 58 27 118 15 103 -19 205 14 298 98 40 36 84 100 75 108 -3 3
-23 -14 -46 -38 -22 -25 -64 -58 -93 -74 -48 -26 -62 -29 -144 -29 -102 0
-137 13 -152 54 -17 45 -32 105 -34 135 -3 29 -18 43 -32 29z"/>
<path d="M7298 5403 c7 -3 16 -2 19 1 4 3 -2 6 -13 5 -11 0 -14 -3 -6 -6z"/>
<path d="M3000 5275 c-8 -9 -8 -15 -2 -15 18 0 42 12 42 21 0 14 -26 10 -40
-6z"/>
<path d="M3100 5220 c0 -11 7 -23 15 -27 21 -8 28 1 20 26 -8 27 -35 27 -35 1z"/>
<path d="M3020 5215 c-11 -13 -7 -15 24 -15 25 0 36 4 36 15 0 9 -9 15 -24 15
-13 0 -29 -7 -36 -15z"/>
<path d="M3112 5159 c2 -7 14 -19 26 -27 21 -13 22 -13 22 8 0 13 -3 20 -6 17
-4 -3 -16 -2 -26 4 -16 8 -19 8 -16 -2z"/>
<path d="M3120 5086 c0 -21 21 -31 31 -15 14 22 11 29 -11 29 -11 0 -20 -6
-20 -14z"/>
<path d="M3153 4938 c2 -7 10 -13 17 -13 7 0 15 6 18 13 2 7 -5 12 -18 12 -13
0 -20 -5 -17 -12z"/>
<path d="M3210 4860 c-7 -4 -10 -12 -6 -18 3 -6 2 -13 -4 -17 -5 -3 -10 -11
-10 -18 0 -8 3 -8 12 1 7 7 20 12 30 12 21 0 23 16 5 35 -8 8 -19 10 -27 5z"/>
<path d="M3277 4744 c-4 -4 -4 -18 -1 -31 5 -17 1 -28 -12 -38 -16 -12 -17
-14 -3 -15 17 0 34 26 30 45 -1 6 3 4 10 -2 19 -19 37 -16 44 8 9 26 0 35 -20
19 -12 -10 -16 -9 -21 4 -6 17 -16 20 -27 10z"/>
<path d="M3370 4729 c-13 -8 -13 -10 0 -19 27 -18 39 -9 22 17 -5 8 -12 9 -22
2z"/>
<path d="M3310 4665 c0 -9 5 -15 11 -13 6 2 11 8 11 13 0 5 -5 11 -11 13 -6 2
-11 -4 -11 -13z"/>
<path d="M3368 4635 c-6 -14 -9 -28 -6 -31 10 -10 48 20 48 38 0 27 -29 22
-42 -7z"/>
<path d="M3404 4489 c-7 -12 15 -31 28 -23 4 3 8 12 8 20 0 17 -26 19 -36 3z"/>
<path d="M3460 4440 c0 -5 6 -10 14 -10 8 0 18 5 21 10 3 6 -3 10 -14 10 -12
0 -21 -4 -21 -10z"/>
<path d="M3568 4428 c-2 -19 -9 -23 -33 -20 -24 2 -27 0 -13 -8 9 -6 15 -17
12 -25 -11 -27 11 -16 49 24 30 31 34 40 21 45 -26 10 -32 7 -36 -16z"/>
<path d="M3630 4385 c0 -8 5 -15 10 -15 6 0 10 7 10 15 0 8 -4 15 -10 15 -5 0
-10 -7 -10 -15z"/>
<path d="M3560 4245 c-10 -13 -10 -19 5 -35 21 -23 35 -26 35 -6 0 7 -10 16
-22 20 -22 5 -22 6 -3 20 11 9 15 16 9 16 -6 0 -17 -7 -24 -15z"/>
<path d="M3610 4256 c0 -2 7 -6 15 -10 8 -3 15 -1 15 4 0 6 -7 10 -15 10 -8 0
-15 -2 -15 -4z"/>
<path d="M3540 4164 c0 -11 6 -13 19 -9 15 4 20 1 23 -16 l3 -21 20 23 c11 13
16 21 11 17 -5 -4 -21 -1 -37 7 -35 19 -39 19 -39 -1z"/>
<path d="M3840 3920 c0 -5 7 -7 15 -4 8 4 15 8 15 10 0 2 -7 4 -15 4 -8 0 -15
-4 -15 -10z"/>
<path d="M3080 3909 c0 -5 5 -7 10 -4 6 3 10 8 10 11 0 2 -4 4 -10 4 -5 0 -10
-5 -10 -11z"/>
<path d="M3966 3906 c3 -9 11 -16 16 -16 13 0 5 23 -10 28 -7 2 -10 -2 -6 -12z"/>
<path d="M3944 3875 c-4 -9 -4 -18 -2 -21 9 -8 39 8 35 19 -6 18 -27 20 -33 2z"/>
<path d="M4126 3841 c-4 -7 -5 -15 -2 -18 9 -9 19 4 14 18 -4 11 -6 11 -12 0z"/>
<path d="M4302 3733 c2 -10 11 -19 21 -21 23 -5 21 10 -4 26 -18 12 -20 11
-17 -5z"/>
<path d="M4200 3660 c0 -5 5 -10 10 -10 6 0 10 5 10 10 0 6 -4 10 -10 10 -5 0
-10 -4 -10 -10z"/>
<path d="M4303 3652 c-13 -2 -23 -10 -23 -18 0 -19 36 -18 44 2 8 20 7 21 -21
16z"/>
<path d="M5695 3650 c-14 -23 5 -45 40 -45 19 0 35 3 35 7 0 12 -25 22 -47 19
-17 -2 -21 1 -17 13 7 18 -1 22 -11 6z"/>
<path d="M5234 3635 c-3 -8 -3 -19 0 -24 10 -16 36 -1 36 20 0 22 -28 26 -36
4z"/>
<path d="M5378 3643 c7 -3 16 -2 19 1 4 3 -2 6 -13 5 -11 0 -14 -3 -6 -6z"/>
<path d="M4991 3624 c0 -11 3 -14 6 -6 3 7 2 16 -1 19 -3 4 -6 -2 -5 -13z"/>
<path d="M5110 3631 c0 -6 4 -13 10 -16 6 -3 7 1 4 9 -7 18 -14 21 -14 7z"/>
<path d="M5287 3620 c-6 -22 18 -29 26 -7 4 9 8 9 15 -2 5 -7 15 -10 21 -6 9
5 9 10 0 21 -17 21 -56 18 -62 -6z"/>
<path d="M5455 3610 c-3 -5 1 -10 9 -10 9 0 16 5 16 10 0 6 -4 10 -9 10 -6 0
-13 -4 -16 -10z"/>
<path d="M4661 3600 c-14 -8 -7 -30 9 -30 11 0 21 28 12 34 -5 3 -14 1 -21 -4z"/>
<path d="M4912 3580 c-27 -22 -29 -34 -3 -20 11 5 27 7 35 4 10 -4 16 -1 16 9
0 23 -23 27 -48 7z"/>
<path d="M5390 3585 c0 -8 5 -15 10 -15 6 0 10 7 10 15 0 8 -4 15 -10 15 -5 0
-10 -7 -10 -15z"/>
<path d="M5603 3570 c1 -20 12 -26 20 -12 3 4 -1 13 -8 19 -11 10 -13 9 -12
-7z"/>
<path d="M4780 3565 c0 -8 8 -15 18 -15 10 0 23 -5 30 -12 9 -9 15 -9 23 -1 9
9 2 16 -26 27 -46 19 -45 19 -45 1z"/>
<path d="M5810 3569 c0 -5 5 -7 10 -4 6 3 10 8 10 11 0 2 -4 4 -10 4 -5 0 -10
-5 -10 -11z"/>
<path d="M4730 3560 c-8 -5 -12 -11 -9 -14 2 -3 11 -1 19 4 8 5 12 11 9 14 -2
3 -11 1 -19 -4z"/>
<path d="M5127 3554 c3 -8 11 -14 19 -14 21 0 17 17 -5 23 -14 3 -18 1 -14 -9z"/>
<path d="M5052 3551 c-11 -7 -10 -10 3 -15 23 -9 25 -8 25 9 0 17 -9 19 -28 6z"/>
<path d="M5010 3500 c0 -5 7 -10 15 -10 8 0 15 -4 15 -10 0 -5 -7 -10 -15 -10
-8 0 -15 -4 -15 -10 0 -5 6 -10 14 -10 16 0 31 34 21 50 -8 13 -35 13 -35 0z"/>
<path d="M7075 3473 c-49 -14 -98 -13 -275 3 -60 6 -64 5 -50 -10 10 -10 55
-22 119 -33 110 -18 198 -11 276 22 76 31 24 45 -70 18z"/>
<path d="M5150 3440 c0 -11 7 -20 15 -20 17 0 18 2 9 24 -9 23 -24 20 -24 -4z"/>
<path d="M3753 3334 c0 -23 45 -37 63 -20 12 12 9 14 -21 12 -19 -2 -32 0 -30
5 3 4 2 10 -3 13 -5 3 -9 -2 -9 -10z"/>
<path d="M6750 3290 c0 -5 26 -17 58 -27 45 -14 91 -17 225 -16 153 1 189 4
176 17 -2 3 -58 7 -124 10 -66 4 -165 10 -220 16 -124 12 -115 12 -115 0z"/>
</g>
</svg>
