<svg width="60" height="60" viewBox="0 0 60 60" fill="none" xmlns="http://www.w3.org/2000/svg">
<path d="M35 52.5001V37.5001H25V52.5001M47.5 24.4453V40.5001C47.5 44.7004 47.5 46.8006 46.6825 48.4049C45.9635 49.8161 44.8162 50.9636 43.405 51.6826C41.8005 52.5001 39.7005 52.5001 35.5 52.5001H24.5C20.2996 52.5001 18.1994 52.5001 16.5951 51.6826C15.1839 50.9636 14.0365 49.8161 13.3175 48.4049C12.5 46.8006 12.5 44.7004 12.5 40.5001V24.4437M52.5 30.0001L38.917 14.91C35.8278 11.4781 34.2833 9.76213 32.464 9.12865C30.8665 8.57223 29.1275 8.57235 27.5297 9.129C25.7107 9.76278 24.1665 11.479 21.0778 14.9113L7.5 30.0001" stroke="#EEDDFF" stroke-width="3" stroke-linecap="round" stroke-linejoin="round"/>
</svg>
