<svg width="27" height="27" viewBox="0 0 27 27" fill="none" xmlns="http://www.w3.org/2000/svg">
<path d="M13.4667 26.6667C11.6 26.6667 9.85 26.3111 8.21667 25.6C6.58333 24.8889 5.16111 23.9278 3.95 22.7167C2.73889 21.5056 1.77778 20.0833 1.06667 18.45C0.355556 16.8167 0 15.0667 0 13.2C0 9.95555 1.03333 7.09444 3.1 4.61667C5.16667 2.13889 7.8 0.6 11 0C10.6 2.2 10.7222 4.35 11.3667 6.45C12.0111 8.55 13.1222 10.3889 14.7 11.9667C16.2778 13.5444 18.1167 14.6556 20.2167 15.3C22.3167 15.9444 24.4667 16.0667 26.6667 15.6667C26.0889 18.8667 24.5556 21.5 22.0667 23.5667C19.5778 25.6333 16.7111 26.6667 13.4667 26.6667ZM13.4667 24C15.4222 24 17.2333 23.5111 18.9 22.5333C20.5667 21.5556 21.8778 20.2111 22.8333 18.5C20.9222 18.3222 19.1111 17.8389 17.4 17.05C15.6889 16.2611 14.1556 15.1889 12.8 13.8333C11.4444 12.4778 10.3667 10.9444 9.56667 9.23333C8.76667 7.52222 8.28889 5.71111 8.13333 3.8C6.42222 4.75556 5.08333 6.07222 4.11667 7.75C3.15 9.42778 2.66667 11.2444 2.66667 13.2C2.66667 16.2 3.71667 18.75 5.81667 20.85C7.91667 22.95 10.4667 24 13.4667 24Z" fill="#EEDDFF"/>
</svg>
