<svg width="18" height="29" viewBox="0 0 18 29" fill="none" xmlns="http://www.w3.org/2000/svg">
<path d="M1.33333 28.6667L5.06667 9.86667L2.66667 10.8V15.3333H0V9.06667L6.73333 6.2C7.04444 6.06667 7.37222 5.98889 7.71667 5.96667C8.06111 5.94444 8.38889 5.98889 8.7 6.1C9.01111 6.21111 9.30556 6.36667 9.58333 6.56667C9.86111 6.76667 10.0889 7.02222 10.2667 7.33333L11.6 9.46667C12.1778 10.4 12.9611 11.1667 13.95 11.7667C14.9389 12.3667 16.0667 12.6667 17.3333 12.6667V15.3333C15.7778 15.3333 14.3889 15.0111 13.1667 14.3667C11.9444 13.7222 10.9 12.9 10.0333 11.9L9.2 16L12 18.6667V28.6667H9.33333V20L6.53333 17.8667L4.13333 28.6667H1.33333ZM10 5.33333C9.26667 5.33333 8.63889 5.07222 8.11667 4.55C7.59444 4.02778 7.33333 3.4 7.33333 2.66667C7.33333 1.93333 7.59444 1.30556 8.11667 0.783333C8.63889 0.261111 9.26667 0 10 0C10.7333 0 11.3611 0.261111 11.8833 0.783333C12.4056 1.30556 12.6667 1.93333 12.6667 2.66667C12.6667 3.4 12.4056 4.02778 11.8833 4.55C11.3611 5.07222 10.7333 5.33333 10 5.33333Z" fill="#EEDDFF"/>
</svg>
